<?xml version="1.0" encoding="UTF-8" standalone="no"?>
<svg
  data-v-fde0c5aa=""
  aria-hidden="true"
  focusable="false"
  fill="none"
  viewBox="0 0 272 480"
  class="iconLeft"
  version="1.1"
  id="svg267"
  xmlns:xlink="http://www.w3.org/1999/xlink"
  xmlns="http://www.w3.org/2000/svg"
  xmlns:svg="http://www.w3.org/2000/svg">
  <!---->
  <defs
    data-v-fde0c5aa=""
    id="defs244">
    <!---->
    <linearGradient
      xlink:href="#4d00bb78-4805-40c5-b58e-18c385d72537"
      id="linearGradient575"
      gradientTransform="scale(0.75584312,1.3230259)"
      x1="15.878714"
      y1="6.802588"
      x2="26.460518"
      y2="6.802588"
      gradientUnits="userSpaceOnUse" />
    <linearGradient
      xlink:href="#4d00bb78-4805-40c5-b58e-18c385d72537"
      id="linearGradient577"
      gradientTransform="scale(0.84515425,1.183216)"
      x1="7.0992956"
      y1="1.6903085"
      x2="30.763615"
      y2="1.6903085"
      gradientUnits="userSpaceOnUse" />
    <linearGradient
      xlink:href="#4d00bb78-4805-40c5-b58e-18c385d72537"
      id="linearGradient579"
      gradientTransform="scale(0.84515425,1.183216)"
      x1="7.0992956"
      y1="1.6903085"
      x2="30.763615"
      y2="1.6903085"
      gradientUnits="userSpaceOnUse" />
    <linearGradient
      xlink:href="#4d00bb78-4805-40c5-b58e-18c385d72537"
      id="linearGradient581"
      gradientTransform="scale(0.84515425,1.183216)"
      x1="74.613358"
      y1="9.6077356"
      x2="98.277679"
      y2="9.6077356"
      gradientUnits="userSpaceOnUse" />
  </defs>
  <g
    data-v-fde0c5aa=""
    id="4cd3e734-9ba4-4a98-89f4-03355cdfdc98"
    stroke="none"
    fill="url(#4d00bb78-4805-40c5-b58e-18c385d72537)"
    transform="matrix(10.046788,0,0,10.046788,-584.01629,-104.86718)"
    style="fill:url(#linearGradient581)">
    <g
      data-name="Layer 2"
      id="g264"
      style="fill:url(#linearGradient579)"
      transform="translate(57.059797,9.3680263)">
      <path
        d="m 18,9 h -4 a 2,2 0 0 0 -1,3.731 V 12 a 2,2 0 0 1 2,-2 h 3 a 1,1 0 0 1 0,2 h -3 v 1 h 3 a 2,2 0 0 0 0,-4 z m 0,10 h -4 a 2,2 0 0 0 -1,3.731 V 22 a 2,2 0 0 1 2,-2 h 3 a 1,1 0 0 1 0,2 h -3 v 1 h 3 a 2,2 0 0 0 0,-4 z"
        id="path260"
        style="fill:url(#linearGradient575)" />
      <path
        d="M 23,2 H 9 A 3,3 0 0 0 6,5 v 22 a 3,3 0 0 0 3,3 h 14 a 3,3 0 0 0 3,-3 V 5 A 3,3 0 0 0 23,2 Z m -5,23 h -4 a 4,4 0 0 1 0,-8 h 4 a 4,4 0 0 1 0,8 z m 0,-10 h -4 a 4,4 0 0 1 0,-8 h 4 a 4,4 0 0 1 0,8 z"
        id="path262"
        style="fill:url(#linearGradient577)" />
    </g>
  </g>
  <defs
    data-v-fde0c5aa=""
    id="defs248">
    <!---->
  </defs>
  <defs
    data-v-fde0c5aa=""
    id="defs258">
    <linearGradient
      data-v-fde0c5aa=""
      gradientTransform="rotate(25)"
      id="4d00bb78-4805-40c5-b58e-18c385d72537"
      x1="0"
      y1="0"
      x2="1"
      y2="0">
      <stop
        data-v-fde0c5aa=""
        offset="0%"
        stop-color="#D418EA"
        stop-opacity="1"
        id="stop253" />
      <stop
        data-v-fde0c5aa=""
        offset="100%"
        stop-color="#ECD062"
        stop-opacity="1"
        id="stop255" />
    </linearGradient>
  </defs>
  <!---->
</svg>