<svg xmlns="http://www.w3.org/2000/svg" xmlns:svg="http://www.w3.org/2000/svg" xmlns:xlink="http://www.w3.org/1999/xlink" id="svg267" class="iconLeft" version="1.1" viewBox="0 0 300 300"><defs id="defs244"><linearGradient id="linearGradient575" x1="15.879" x2="26.461" y1="6.803" y2="6.803" gradientTransform="scale(0.75584312,1.3230259)" gradientUnits="userSpaceOnUse" xlink:href="#4d00bb78-4805-40c5-b58e-18c385d72537"/><linearGradient id="linearGradient577" x1="7.099" x2="30.764" y1="1.69" y2="1.69" gradientTransform="scale(0.84515425,1.183216)" gradientUnits="userSpaceOnUse" xlink:href="#4d00bb78-4805-40c5-b58e-18c385d72537"/><linearGradient id="linearGradient579" x1="7.099" x2="30.764" y1="1.69" y2="1.69" gradientTransform="scale(0.84515425,1.183216)" gradientUnits="userSpaceOnUse" xlink:href="#4d00bb78-4805-40c5-b58e-18c385d72537"/><linearGradient id="linearGradient581" x1="74.613" x2="98.278" y1="9.608" y2="9.608" gradientTransform="scale(0.84515425,1.183216)" gradientUnits="userSpaceOnUse" xlink:href="#4d00bb78-4805-40c5-b58e-18c385d72537"/></defs><g id="4cd3e734-9ba4-4a98-89f4-03355cdfdc98" fill="url(#4d00bb78-4805-40c5-b58e-18c385d72537)" stroke="none" transform="matrix(10.046788,0,0,10.046788,-584.01629,-104.86718)" style="fill:url(#linearGradient581)"><g id="g264" data-name="Layer 2" style="fill:url(#linearGradient579)" transform="translate(57.059797,9.3680263)"><path id="path260" d="m 18,9 h -4 a 2,2 0 0 0 -1,3.731 V 12 a 2,2 0 0 1 2,-2 h 3 a 1,1 0 0 1 0,2 h -3 v 1 h 3 a 2,2 0 0 0 0,-4 z m 0,10 h -4 a 2,2 0 0 0 -1,3.731 V 22 a 2,2 0 0 1 2,-2 h 3 a 1,1 0 0 1 0,2 h -3 v 1 h 3 a 2,2 0 0 0 0,-4 z" style="fill:url(#linearGradient575)"/><path id="path262" d="M 23,2 H 9 A 3,3 0 0 0 6,5 v 22 a 3,3 0 0 0 3,3 h 14 a 3,3 0 0 0 3,-3 V 5 A 3,3 0 0 0 23,2 Z m -5,23 h -4 a 4,4 0 0 1 0,-8 h 4 a 4,4 0 0 1 0,8 z m 0,-10 h -4 a 4,4 0 0 1 0,-8 h 4 a 4,4 0 0 1 0,8 z" style="fill:url(#linearGradient577)"/></g></g><defs id="defs258"><linearGradient id="4d00bb78-4805-40c5-b58e-18c385d72537" x1="0%" x2="100%" y1="0%" y2="0%" gradientTransform="rotate(25)"><stop id="stop253" offset="0%" stop-color="#D418EA" stop-opacity="1"/><stop id="stop255" offset="100%" stop-color="#ECD062" stop-opacity="1"/></linearGradient></defs></svg>