<?xml version="1.0" encoding="UTF-8" standalone="no"?>
<svg
  data-v-fde0c5aa=""
  viewBox="0 0 300 300"
  class="iconLeft"
  version="1.1"
  id="svg267"
  sodipodi:docname="default.svg"
  inkscape:export-filename="default.svg"
  inkscape:export-xdpi="96"
  inkscape:export-ydpi="96"
  inkscape:version="1.2.2 (b0a84865, 2022-12-01)"
  xmlns:inkscape="http://www.inkscape.org/namespaces/inkscape"
  xmlns:sodipodi="http://sodipodi.sourceforge.net/DTD/sodipodi-0.dtd"
  xmlns:xlink="http://www.w3.org/1999/xlink"
  xmlns="http://www.w3.org/2000/svg"
  xmlns:svg="http://www.w3.org/2000/svg">
  <sodipodi:namedview
    id="namedview269"
    pagecolor="#ffffff"
    bordercolor="#000000"
    borderopacity="0.25"
    inkscape:showpageshadow="2"
    inkscape:pageopacity="0.0"
    inkscape:pagecheckerboard="0"
    inkscape:deskcolor="#d1d1d1"
    showgrid="false"
    inkscape:zoom="2.1066909"
    inkscape:cx="51.502572"
    inkscape:cy="154.98239"
    inkscape:window-width="1920"
    inkscape:window-height="1027"
    inkscape:window-x="1440"
    inkscape:window-y="25"
    inkscape:window-maximized="0"
    inkscape:current-layer="svg267" />
  <!---->
  <defs
    data-v-fde0c5aa=""
    id="defs244">
    <!---->
    <linearGradient
      inkscape:collect="always"
      xlink:href="#4d00bb78-4805-40c5-b58e-18c385d72537"
      id="linearGradient575"
      gradientTransform="scale(0.75584312,1.3230259)"
      x1="15.878714"
      y1="6.8025881"
      x2="26.460517"
      y2="6.8025881"
      gradientUnits="userSpaceOnUse" />
    <linearGradient
      inkscape:collect="always"
      xlink:href="#4d00bb78-4805-40c5-b58e-18c385d72537"
      id="linearGradient577"
      gradientTransform="scale(0.84515425,1.183216)"
      x1="7.0992957"
      y1="1.6903085"
      x2="30.763615"
      y2="1.6903085"
      gradientUnits="userSpaceOnUse" />
    <linearGradient
      inkscape:collect="always"
      xlink:href="#4d00bb78-4805-40c5-b58e-18c385d72537"
      id="linearGradient579"
      gradientTransform="scale(0.84515425,1.183216)"
      x1="7.0992957"
      y1="1.6903085"
      x2="30.763615"
      y2="1.6903085"
      gradientUnits="userSpaceOnUse" />
    <linearGradient
      inkscape:collect="always"
      xlink:href="#4d00bb78-4805-40c5-b58e-18c385d72537"
      id="linearGradient581"
      gradientTransform="scale(0.84515425,1.183216)"
      x1="74.613358"
      y1="9.6077358"
      x2="98.277677"
      y2="9.6077358"
      gradientUnits="userSpaceOnUse" />
  </defs>
  <g
    data-v-fde0c5aa=""
    id="4cd3e734-9ba4-4a98-89f4-03355cdfdc98"
    stroke="none"
    fill="url(#4d00bb78-4805-40c5-b58e-18c385d72537)"
    transform="matrix(10.046788,0,0,10.046788,-584.01629,-104.86718)"
    style="fill:url(#linearGradient581)"
    inkscape:export-filename="logo.svg"
    inkscape:export-xdpi="96"
    inkscape:export-ydpi="96">
    <g
      data-name="Layer 2"
      id="g264"
      style="fill:url(#linearGradient579)"
      transform="translate(57.059797,9.3680263)">
      <path
        d="m 18,9 h -4 a 2,2 0 0 0 -1,3.731 V 12 a 2,2 0 0 1 2,-2 h 3 a 1,1 0 0 1 0,2 h -3 v 1 h 3 a 2,2 0 0 0 0,-4 z m 0,10 h -4 a 2,2 0 0 0 -1,3.731 V 22 a 2,2 0 0 1 2,-2 h 3 a 1,1 0 0 1 0,2 h -3 v 1 h 3 a 2,2 0 0 0 0,-4 z"
        id="path260"
        style="fill:url(#linearGradient575)" />
      <path
        d="M 23,2 H 9 A 3,3 0 0 0 6,5 v 22 a 3,3 0 0 0 3,3 h 14 a 3,3 0 0 0 3,-3 V 5 A 3,3 0 0 0 23,2 Z m -5,23 h -4 a 4,4 0 0 1 0,-8 h 4 a 4,4 0 0 1 0,8 z m 0,-10 h -4 a 4,4 0 0 1 0,-8 h 4 a 4,4 0 0 1 0,8 z"
        id="path262"
        style="fill:url(#linearGradient577)" />
    </g>
  </g>
  <defs
    data-v-fde0c5aa=""
    id="defs248">
    <!---->
  </defs>
  <defs
    data-v-fde0c5aa=""
    id="defs258">
    <linearGradient
      data-v-fde0c5aa=""
      gradientTransform="rotate(25)"
      id="4d00bb78-4805-40c5-b58e-18c385d72537"
      x1="0%"
      y1="0%"
      x2="100%"
      y2="0%">
      <stop
        data-v-fde0c5aa=""
        offset="0%"
        stop-color="#D418EA"
        stop-opacity="1"
        id="stop253" />
      <stop
        data-v-fde0c5aa=""
        offset="100%"
        stop-color="#ECD062"
        stop-opacity="1"
        id="stop255" />
    </linearGradient>
  </defs>
  <!---->
</svg>